<?xml version="1.0" encoding="utf-8"?>
<?xml-stylesheet type="text/xsl" href="rss1.xsl"?>
<rss version="2.0" xmlns:atom="http://www.w3.org/2005/Atom" xmlns:content="http://purl.org/rss/1.0/modules/content/" xmlns:dc="http://purl.org/dc/elements/1.1/" xmlns:media="http://search.yahoo.com/mrss/">
<channel>
 <title>Getty</title>
 <link>http://www.gettyimg.com/</link>
 <atom:link href="http://www.gettyimg.com/" rel="self" type="application/rss+xml" />

 
                <item>
                <title><![CDATA[【SD】Rascal Flatts - What Hurts The Most (Re-Edited Version) (2006)]]></title>
                <link><![CDATA[https://sharemania.us/threads/rascal-flatts-what-hurts-the-most-re-edited-version-2006.240861/]]></link>
                <description><![CDATA[<article>
<blockquote class="messageText SelectQuoteContainer ugc baseHtml">
<div style="text-align: center"><img src="https://i.discogs.com/Bdd5fpeBgqrE3G_fMPZYN60KOx-r0SjYOpQ-q7pkzIo/rs:fit/g:sm/q:90/h:596/w:600/czM6Ly9kaXNjb2dz/LWRhdGFiYXNlLWlt/YWdlcy9SLTEyMzE2/ODc3LTE1ODg3MjEx/MDYtMTAwNC5qcGVn.jpeg" class="bbCodeImage LbImage" alt="[​IMG]" data-url="https://i.discogs.com/Bdd5fpeBgqrE3G_fMPZYN60KOx-r0SjYOpQ-q7pkzIo/rs:fit/g:sm/q:90/h:596/w:600/czM6Ly9kaXNjb2dz/LWRhdGFiYXNlLWlt/YWdlcy9SLTEyMzE2/ODc3LTE1ODg3MjEx/MDYtMTAwNC5qcGVn.jpeg" style=""> <br>
<img src="https://i.ibb.co/vsppBqQ/Rascal-Flatts-What-Hurts-The-Most-Re-Edited-Version-2006-fan-Made-mp4-thumbs.jpg" class="bbCodeImage LbImage" alt="[​IMG]" data-url="https://i.ibb.co/vsppBqQ/Rascal-Flatts-What-Hurts-The-Most-Re-Edited-Version-2006-fan-Made-mp4-thumbs.jpg" style=""> <br>
<div class="bbCodeBlock bbCodeVfcHH HiddenContent">
<div class="attribution type">Hidden Content:</div>
<blockquote>You must either reply or click 'Like' to see the hidden information contained here.</blockquote>
</div></div>
<div class="messageTextEndMarker">&nbsp;</div>
</blockquote>
</article>]]></description>
                <author><![CDATA[Fan Made]]></author>
                </item>

                
                <item>
                <title><![CDATA[【PRORES HD】Lizzo - 2 Be Loved (Master ProRes 4K LPCM)]]></title>
                <link><![CDATA[https://sharemania.us/threads/lizzo-2-be-loved-master-prores-4k-lpcm.240862/]]></link>
                <description><![CDATA[<article>
<blockquote class="messageText SelectQuoteContainer ugc baseHtml">
<div style="text-align: center"><img src="https://i.imgur.com/PiWTm8Z.png" class="bbCodeImage LbImage" alt="[​IMG]" data-url="https://i.imgur.com/PiWTm8Z.png" style=""><br>
<br>
<div class="ToggleTriggerAnchor bbCodeSpoilerContainer">
<button type="button" class="button bbCodeSpoilerButton ToggleTrigger Tooltip JsOnly" data-target="> .SpoilerTarget"><span>Spoiler: <span class="SpoilerTitle">Mediainfo</span></span></button>
<div class="SpoilerTarget bbCodeSpoilerText">Format : MPEG-4<br>
Format profile : QuickTime<br>
Codec ID : qt 2005.03 (qt )<br>
File size : 15.5 GiB<br>
Duration : 3 min 8 s<br>
Overall bit rate mode : Variable<br>
Overall bit rate : 707 Mb/s<br>
Frame rate : 23.976 FPS<br>
Encoded date : 2022-08-13 05:21:15 UTC<br>
Tagged date : 2022-08-13 05:22:37 UTC<br>
Writing library : Apple QuickTime<br>
TIM : 00:00:06:00<br>
TSC : 24000<br>
TSZ : 1001<br>
Video<br>
ID : 1<br>
Format : ProRes<br>
Format version : Version 0<br>
Format profile : 422 HQ<br>
Codec ID : apch<br>
Duration : 3 min 8 s<br>
Bit rate mode : Variable<br>
Bit rate : 705 Mb/s<br>
Width : 3 840 pixels<br>
Height : 2 160 pixels<br>
Display aspect ratio : 16:9<br>
Frame rate mode : Constant<br>
Frame rate : 23.976 (24000/1001) FPS<br>
Color space : YUV<br>
Chroma subsampling : 4:2:2<br>
Scan type : Progressive<br>
Bits/(Pixel*Frame) : 3.547<br>
Stream size : 15.5 GiB (100%)<br>
Writing library : Apple<br>
Language : English<br>
Encoded date : 2022-08-13 05:21:15 UTC<br>
Tagged date : 2022-08-13 05:21:15 UTC<br>
Color primaries : BT.709<br>
Transfer characteristics : BT.709<br>
Matrix coefficients : BT.709<br>
Menus : 0<br>
Audio<br>
ID : 2<br>
Format : PCM<br>
Format settings : Little / Signed<br>
Codec ID : sowt<br>
Duration : 3 min 8 s<br>
Bit rate mode : Constant<br>
Bit rate : 1 536 kb/s<br>
Channel(s) : 2 channels<br>
Channel layout : L R<br>
Sampling rate : 48.0 kHz<br>
Bit depth : 16 bits<br>
Stream size : 34.5 MiB (0%)<br>
Language : English<br>
Encoded date : 2022-08-13 05:21:15 UTC<br>
Tagged date : 2022-08-13 05:21:15 UTC<br>
Menus : 0<br>
Other<br>
ID : 3<br>
Type : Time code<br>
Format : QuickTime TC<br>
Duration : 3 min 8 s<br>
Frame rate : 23.976 (24000/1001) FPS<br>
Time code of first frame : 00:00:06:00<br>
Time code of last frame : 00:03:14:08<br>
Time code, stripped : Yes<br>
Language : English<br>
Encoded date : 2022-08-13 05:21:15 UTC<br>
Tagged date : 2022-08-13 05:21:15 UTC</div>
</div><br>
<img src="http://i.imgur.com/H3epECR.png" class="bbCodeImage LbImage" alt="[​IMG]" data-url="http://i.imgur.com/H3epECR.png" style=""><br>
<br>
<div class="bbCodeBlock bbCodeVfcHH HiddenContent">
<div class="attribution type">Hidden Content:</div>
<blockquote>You must either reply or click 'Like' to see the hidden information contained here.</blockquote>
</div></div>
<div class="messageTextEndMarker">&nbsp;</div>
</blockquote>
</article>]]></description>
                <author><![CDATA[SUPREME]]></author>
                </item>

                </channel></rss>